<svg width="24" height="24" viewBox="0 0 24 24" fill="none" xmlns="http://www.w3.org/2000/svg">
<path d="M7.249 19.79L3.387 16.79C3.26545 16.6957 3.1673 16.5746 3.1002 16.4361C3.03309 16.2977 2.99883 16.1456 3.00009 15.9918C3.00135 15.8379 3.03809 15.6865 3.10745 15.5491C3.17681 15.4118 3.27692 15.2923 3.4 15.2L7.4 12.2C7.61217 12.0409 7.87887 11.9725 8.14142 12.0101C8.40397 12.0476 8.64087 12.1878 8.8 12.4C8.95913 12.6122 9.02746 12.8789 8.98995 13.1414C8.95244 13.404 8.81217 13.6409 8.6 13.8L7 15H20C20.2652 15 20.5196 15.1054 20.7071 15.2929C20.8946 15.4804 21 15.7348 21 16C21 16.2652 20.8946 16.5196 20.7071 16.7071C20.5196 16.8946 20.2652 17 20 17H6.918L8.476 18.21C8.57974 18.2906 8.6666 18.3908 8.73162 18.5049C8.79664 18.6191 8.83853 18.7449 8.85492 18.8752C8.87131 19.0055 8.86187 19.1378 8.82714 19.2645C8.79241 19.3912 8.73307 19.5098 8.6525 19.6135C8.57193 19.7173 8.47172 19.8041 8.35759 19.8691C8.24345 19.9341 8.11763 19.976 7.9873 19.9924C7.85698 20.0088 7.7247 19.9994 7.59802 19.9646C7.47134 19.9299 7.35274 19.8706 7.249 19.79V19.79ZM15.2 10.6C15.1212 10.4949 15.0639 10.3754 15.0313 10.2482C14.9987 10.121 14.9915 9.98859 15.0101 9.85858C15.0286 9.72858 15.0726 9.60351 15.1395 9.49051C15.2064 9.37751 15.2949 9.2788 15.4 9.20001L17 8.00001H4C3.73478 8.00001 3.48043 7.89465 3.29289 7.70711C3.10536 7.51958 3 7.26522 3 7.00001C3 6.73479 3.10536 6.48044 3.29289 6.2929C3.48043 6.10536 3.73478 6.00001 4 6.00001H17.082L15.524 4.79001C15.4177 4.71037 15.3284 4.61037 15.2612 4.49584C15.194 4.3813 15.1502 4.25453 15.1326 4.12291C15.1149 3.9913 15.1236 3.85748 15.1582 3.72926C15.1928 3.60105 15.2525 3.48101 15.334 3.37615C15.4155 3.27129 15.5171 3.18371 15.6328 3.11852C15.7485 3.05333 15.876 3.01184 16.0079 2.99647C16.1398 2.9811 16.2734 2.99215 16.401 3.02898C16.5286 3.06582 16.6476 3.1277 16.751 3.21101L20.613 6.21101C20.7344 6.30534 20.8323 6.42638 20.8993 6.56473C20.9663 6.70308 21.0005 6.85501 20.9993 7.00872C20.998 7.16243 20.9613 7.31378 20.8921 7.45101C20.8228 7.58824 20.7229 7.70767 20.6 7.80001L16.6 10.8C16.4949 10.8788 16.3754 10.9361 16.2482 10.9687C16.121 11.0013 15.9886 11.0085 15.8586 10.99C15.7286 10.9714 15.6035 10.9274 15.4905 10.8605C15.3775 10.7936 15.2788 10.7051 15.2 10.6V10.6Z" fill="#737884" id="id_101"></path>
</svg>